<svg xmlns="http://www.w3.org/2000/svg" class="ProFile-dossier-icon" viewBox="0 0 32 32" version="1.1"><g><path fill="#0072c6" class="dossier-color-default " d="M 26.8 7.6 c -1.5 0 -2.7 1.2 -2.7 2.7 c 0 1.5 1.2 2.7 2.7 2.7 c 1.5 0 2.7 -1.2 2.7 -2.7 C 29.5 8.8 28.3 7.6 26.8 7.6 Z M 16 7.6 c -1.5 0 -2.7 1.2 -2.7 2.7 c 0 1.5 1.2 2.7 2.7 2.7 c 1.5 0 2.7 -1.2 2.7 -2.7 C 18.6 8.8 17.4 7.6 16 7.6 Z M 5.1 7.6 c -1.5 0 -2.7 1.2 -2.7 2.7 c 0 1.5 1.2 2.7 2.7 2.7 c 1.5 0 2.7 -1.2 2.7 -2.7 C 7.7 8.8 6.6 7.6 5.1 7.6 Z M 23 4.7 h 7.7 c 0.4 0 0.8 0.4 0.8 0.8 v 21.1 c 0 0.4 -0.4 0.8 -0.8 0.8 H 23 c -0.4 0 -0.8 -0.4 -0.8 -0.8 V 5.5 C 22.2 5 22.5 4.7 23 4.7 Z M 12.1 4.7 h 7.7 c 0.4 0 0.8 0.4 0.8 0.8 v 21.1 c 0 0.4 -0.4 0.8 -0.8 0.8 h -7.7 c -0.4 0 -0.8 -0.4 -0.8 -0.8 V 5.5 C 11.3 5 11.7 4.7 12.1 4.7 Z M 1.2 4.7 h 7.7 c 0.4 0 0.8 0.4 0.8 0.8 v 21.1 c 0 0.4 -0.4 0.8 -0.8 0.8 H 1.2 c -0.4 0 -0.8 -0.4 -0.8 -0.8 V 5.5 C 0.5 5 0.8 4.7 1.2 4.7 Z" /></g></svg>