<?xml version="1.0" encoding="utf-8"?>
<!-- Generator: Adobe Illustrator 18.0.0, SVG Export Plug-In . SVG Version: 6.00 Build 0)  -->
<!DOCTYPE svg PUBLIC "-//W3C//DTD SVG 1.1//EN" "http://www.w3.org/Graphics/SVG/1.1/DTD/svg11.dtd">
<svg version="1.1" id="Layer_1" xmlns="http://www.w3.org/2000/svg" xmlns:xlink="http://www.w3.org/1999/xlink" x="0px" y="0px"
	 viewBox="0 0 64 64" enable-background="new 0 0 64 64" xml:space="preserve">
<g>
	<g>
		<g>
			<path fill="#0072c6" d="M0,56c0,1.1,0.9,2,2,2h60c1.1,0,2-0.9,2-2V25H0C0,38.8,0,56.1,0,56z"/>
		</g>
	</g>
	<g>
		<g>
			<path fill="#0072c6" d="M62,12H31.4c-0.5,0-1-0.2-1.4-0.6l-3.4-4.8C26.2,6.2,25.7,6,25.2,6H2C0.9,6,0,6.9,0,8c0,0,0,5.6,0,13h64v-7
				C64,12.9,63.1,12,62,12z"/>
		</g>
	</g>
</g>
</svg>
